# xmcd
#
# Track frame offsets:
#       150
#       9679
#       20343
#       26340
#       36663
#       46426
#       55973
#       68959
#       79660
#       90204
#       98641
#
# Disc length: 1451 seconds
#
# Revision: 0
# Processed by: cddbd v1.4PL0 Copyright (c) Steve Scherf et al.
# Submitted via: CD-DA_X-Tractor v0.23
#
DISCID=8105a90b
DTITLE=Butterfingers - The People We Know
DYEAR=2002
DGENRE=Country
TTITLE0=Uncle Pete
TTITLE1=Singing Together
TTITLE2=Jelly Belly
TTITLE3=Murray the Horse
TTITLE4=Burke the Mountie
TTITLE5=Joe the Monkey
TTITLE6=Bob the Cat
TTITLE7=Bubby Bol
TTITLE8=Cows
TTITLE9=Dave the Frog
TTITLE10=The People I Know
EXTD=
EXTT0=
EXTT1=
EXTT2=
EXTT3=
EXTT4=
EXTT5=
EXTT6=
EXTT7=
EXTT8=
EXTT9=
EXTT10=
PLAYORDER=
